<svg class="animated" id="freepik_stories-processing-thoughts" xmlns="http://www.w3.org/2000/svg" viewBox="0 0 500 500" version="1.1" xmlns:xlink="http://www.w3.org/1999/xlink" xmlns:svgjs="http://svgjs.com/svgjs"><style>svg#freepik_stories-processing-thoughts:not(.animated) .animable {opacity: 0;}svg#freepik_stories-processing-thoughts.animated #freepik--background-simple--inject-57 {animation: 1s 1 forwards cubic-bezier(.36,-0.01,.5,1.38) fadeIn,1.5s Infinite  linear wind;animation-delay: 0s,1s;}svg#freepik_stories-processing-thoughts.animated #freepik--Character--inject-57 {animation: 1s 1 forwards ease-in slideRight;animation-delay: 0s;}svg#freepik_stories-processing-thoughts.animated #freepik--Icons--inject-57 {animation: 1s 1 forwards cubic-bezier(.36,-0.01,.5,1.38) slideLeft,1.5s Infinite  linear floating;animation-delay: 0s,0s;}svg#freepik_stories-processing-thoughts.animated #freepik--Device--inject-57 {animation: 1s 1 forwards cubic-bezier(.36,-0.01,.5,1.38) slideUp,1.5s Infinite  linear floating;animation-delay: 0s,1s;}            @keyframes fadeIn {                0% {                    opacity: 0;                }                100% {                    opacity: 1;                }            }                    @keyframes wind {                0% {                    transform: rotate( 0deg );                }                25% {                    transform: rotate( 1deg );                }                75% {                    transform: rotate( -1deg );                }            }                    @keyframes slideRight {                0% {                    opacity: 0;                    transform: translateX(30px);                }                100% {                    opacity: 1;                    transform: translateX(0);                }            }                    @keyframes slideLeft {                0% {                    opacity: 0;                    transform: translateX(-30px);                }                100% {                    opacity: 1;                    transform: translateX(0);                }            }                    @keyframes floating {                0% {                    opacity: 1;                    transform: translateY(0px);                }                50% {                    transform: translateY(-10px);                }                100% {                    opacity: 1;                    transform: translateY(0px);                }            }                    @keyframes slideUp {                0% {                    opacity: 0;                    transform: translateY(30px);                }                100% {                    opacity: 1;                    transform: inherit;                }            }        .animator-hidden { display: none; }</style><g id="freepik--background-simple--inject-57" class="animable animator-hidden" style="transform-origin: 253.056px 238.735px;"><path d="M444.11,113.28c-33.61-47-88.9-75.19-145.12-80.95C245.37,26.84,183,36.14,149.8,83.4c-21.88,31.12-26.84,70.9-45.39,103.8C95.19,203.56,82,212.28,68.69,224.69c-32.5,30.22-53.34,74.49-41.16,119.6C47.9,419.69,123.65,451.18,194.66,446c93.84-6.8,158.43-28.45,209.76-72.29,26.66-22.76,52.76-49,66.35-82.2,20.56-50.19,11.31-108.6-13.1-156A178,178,0,0,0,444.11,113.28Z" style="fill: rgb(84, 240, 49); transform-origin: 253.056px 238.735px;" id="el6znjrbfjcnt" class="animable"></path><g id="elnlck8y4gun"><path d="M444.11,113.28c-33.61-47-88.9-75.19-145.12-80.95C245.37,26.84,183,36.14,149.8,83.4c-21.88,31.12-26.84,70.9-45.39,103.8C95.19,203.56,82,212.28,68.69,224.69c-32.5,30.22-53.34,74.49-41.16,119.6C47.9,419.69,123.65,451.18,194.66,446c93.84-6.8,158.43-28.45,209.76-72.29,26.66-22.76,52.76-49,66.35-82.2,20.56-50.19,11.31-108.6-13.1-156A178,178,0,0,0,444.11,113.28Z" style="fill: rgb(255, 255, 255); opacity: 0.8; transform-origin: 253.056px 238.735px;" class="animable"></path></g></g><g id="freepik--Character--inject-57" class="animable" style="transform-origin: 255.445px 270.443px;"><path d="M145.25,170.45s-9.23,43.43-6.52,51,3.8,23.89,3.8,29.31-25.51,46.68-26,53.2,5.43,11.94,8.69,13S136,319.72,136,319.72s14.66,51,18.46,59.16,8.14,25.51,24.42,30.39,33.65-4.34,33.65-4.34S224,419,228.83,430.44s7.6,32.57,7.6,32.57L374.3,393s-15.74-42.34-15.74-59.16,16.82-52.65,17.37-73.82-25.51-51.56-48.85-60.25-42.34,2.72-56.45,7.06-36.91,1.63-40.71-11.4-2.17-25-25-33.11-56.45,2.17-56.45,2.17Z" style="fill: rgb(255, 255, 255); stroke: rgb(38, 50, 56); stroke-linecap: round; stroke-linejoin: round; transform-origin: 246.22px 311.107px;" id="el1jozxl9iihv" class="animable"></path><line x1="397.49" y1="411.46" x2="400" y2="416.15" style="fill: rgb(255, 255, 255); stroke: rgb(38, 50, 56); stroke-linecap: round; stroke-linejoin: round; transform-origin: 398.745px 413.805px;" id="el80imnedqhfc" class="animable"></line><polyline points="212.67 474.82 384.67 387.48 395.61 407.94" style="fill: rgb(255, 255, 255); stroke: rgb(38, 50, 56); stroke-linecap: round; stroke-linejoin: round; transform-origin: 304.14px 431.15px;" id="elqodfikfpcxk" class="animable"></polyline><path d="M231.06,436.69a59.77,59.77,0,0,0,8.94-9.54c8-11,38-79,38-79a115.12,115.12,0,0,1-16,23c-10,11-49.45,33.78-49.45,33.78S224,419,228.83,430.44A63.42,63.42,0,0,1,231.06,436.69Z" style="fill: rgb(38, 50, 56); stroke: rgb(38, 50, 56); stroke-linecap: round; stroke-linejoin: round; transform-origin: 245.275px 392.42px;" id="el0mc5jvx8scej" class="animable"></path><path d="M180,250.78c0,5.7-1.71,10.32-3.8,10.32s-3.8-4.62-3.8-10.32,1.7-10.31,3.8-10.31S180,245.09,180,250.78Z" style="fill: rgb(38, 50, 56); transform-origin: 176.2px 250.785px;" id="elusvogzc47e8" class="animable"></path><path d="M166.34,217.92c-5.88,1.45-10.08,4.71-8.61,10.61,1.63,6.51,4.34,3.8,15.2-1.08s19.54,6,23.88,4.88c4.56-1.14-5.64-11.41-6.91-12.13C180.53,215,174.58,215.88,166.34,217.92Z" style="fill: rgb(38, 50, 56); transform-origin: 177.705px 224.365px;" id="el3as8dah14nh" class="animable"></path><path d="M326.62,262.67c-.39,2-.76,3.19-.76,3.19" style="fill: none; stroke: rgb(38, 50, 56); stroke-linecap: round; stroke-linejoin: round; transform-origin: 326.24px 264.265px;" id="elikp8ps0i1df" class="animable"></path><path d="M286.91,274.12s-5.43-5.42-4.88-15.19,4.34-27.14,16.82-30.4,24.86,6.07,27.82,17.66a37.34,37.34,0,0,1,.32,14.33" style="fill: none; stroke: rgb(38, 50, 56); stroke-linecap: round; stroke-linejoin: round; transform-origin: 304.762px 250.996px;" id="el2vbmxp3d0gb" class="animable"></path><path d="M284.74,246.9s3.8-4.89,10.31,2.17,3.8,17.37-.54,22.8-10.86,1.63-11.94-2.72S281.48,251.78,284.74,246.9Z" style="fill: rgb(38, 50, 56); stroke: rgb(38, 50, 56); stroke-linecap: round; stroke-linejoin: round; transform-origin: 290.43px 259.901px;" id="el1p8m8ju8tq3" class="animable"></path><path d="M278.77,308.32s1.51,4.5,8.68,4.88c8.94.48,22.8-10.85,22.8-10.85" style="fill: none; stroke: rgb(38, 50, 56); stroke-linecap: round; stroke-linejoin: round; transform-origin: 294.51px 307.782px;" id="elnnju2nuti58" class="animable"></path><path d="M171.33,262.85s3.57,2,11.72-1" style="fill: none; stroke: rgb(38, 50, 56); stroke-linecap: round; stroke-linejoin: round; transform-origin: 177.19px 262.677px;" id="elocb8jcn722i" class="animable"></path><path d="M153.93,312.29a7.63,7.63,0,0,0-.15-2.9" style="fill: none; stroke: rgb(38, 50, 56); stroke-linecap: round; stroke-linejoin: round; transform-origin: 153.892px 310.84px;" id="elv0r05lhdj0p" class="animable"></path><path d="M136.84,315.47s6.07,1.6,9.91,2.23a6.35,6.35,0,0,0,6.67-3.68" style="fill: none; stroke: rgb(38, 50, 56); stroke-linecap: round; stroke-linejoin: round; transform-origin: 145.13px 315.891px;" id="elobp47dxe368" class="animable"></path><path d="M147.84,331s17.14,3,30.92-14.16" style="fill: none; stroke: rgb(38, 50, 56); stroke-linecap: round; stroke-linejoin: round; transform-origin: 163.3px 324.021px;" id="elna47nzufoge" class="animable"></path><path d="M154.56,331s3.34,13.33-1.88,20.41c0,0,10.43,3.36,20.49-7.45s2.33-23.34,2.33-23.34S165.66,330.28,154.56,331Z" style="fill: rgb(38, 50, 56); stroke: rgb(38, 50, 56); stroke-linecap: round; stroke-linejoin: round; transform-origin: 165.508px 336.262px;" id="elk499del2pwj" class="animable"></path><path d="M157.52,350.58l-.22,1.34c4-.13,10-1.6,15.87-7.93a20.73,20.73,0,0,0,2.34-3C164.72,340.06,157.52,350.58,157.52,350.58Z" style="fill: rgb(255, 255, 255); stroke: rgb(38, 50, 56); stroke-linecap: round; stroke-linejoin: round; transform-origin: 166.405px 346.426px;" id="el4lryj0qgc3j" class="animable"></path><path d="M178,327.35a22,22,0,0,0-2.45-6.7s-9.84,9.63-20.94,10.38a38.52,38.52,0,0,1,.75,4.31C159.13,335.55,167.83,335,178,327.35Z" style="fill: rgb(255, 255, 255); stroke: rgb(38, 50, 56); stroke-linecap: round; stroke-linejoin: round; transform-origin: 166.305px 328.012px;" id="elq1l8bhq3fwi" class="animable"></path><path d="M171.8,345.37a49.25,49.25,0,0,1-17.48,3,12.75,12.75,0,0,1-1.64,3.07S162.18,354.49,171.8,345.37Z" style="fill: rgb(255, 255, 255); stroke: rgb(38, 50, 56); stroke-linecap: round; stroke-linejoin: round; transform-origin: 162.24px 348.65px;" id="elhdj1j2w87n" class="animable"></path><path d="M225,78.18S199,89,180.53,84.15s-22.26-13.57-30.94-12.48S133.31,82,133.31,96.09s1.63,19.54,1.63,19.54-13.57-2.71-29.31,11.4-4.89,52.11,11.94,54.28,45.05-17.37,82-3.26c0,0-6.51,29.31,9.77,38s30.94,12.48,33.11,16.82,4.35,18.46,14.12,21.17,16.28-4.34,17.36-12.48,5.43-20.63,20.09-25.51,38,5.42,40.7,32.56-14.11,47.77-16.28,48.85-8.14,4.89-8.14,4.89-3.26,13.57,11.94,25S349.87,349,358,345.23s10.32-21.17,12.49-28.77,29.31-22.25,38-65.13,3.8-86.85-8.14-114-51-60.25-93.9-68.94S225,78.18,225,78.18Z" style="fill: rgb(38, 50, 56); stroke: rgb(38, 50, 56); stroke-linecap: round; stroke-linejoin: round; transform-origin: 255.445px 206.046px;" id="elogfamn6z3bf" class="animable"></path></g><g id="freepik--Arrows--inject-57" class="animable animator-hidden" style="transform-origin: 251.615px 238.96px;"><path d="M225.41,220.32V178.93a7.66,7.66,0,0,1,7.66-7.66h41.61a6,6,0,0,0,6-6v-7.56" style="fill: none; stroke: rgb(255, 255, 255); stroke-linecap: round; stroke-linejoin: round; stroke-dasharray: 3; transform-origin: 253.045px 189.015px;" id="elzst0bdkeel" class="animable"></path><path d="M241.39,227.59V215.17a7.44,7.44,0,0,1,7.44-7.43H280.5a6.9,6.9,0,0,0,6.9-6.9V180.38a6,6,0,0,1,6-6h2.31a5.7,5.7,0,0,0,5.7-5.7V158.2" style="fill: none; stroke: rgb(255, 255, 255); stroke-linecap: round; stroke-linejoin: round; stroke-dasharray: 3; transform-origin: 271.4px 192.895px;" id="elap198odg4vo" class="animable"></path><polyline points="383.24 299.72 341.12 299.72 327.94 289.55" style="fill: none; stroke: rgb(255, 255, 255); stroke-linecap: round; stroke-linejoin: round; stroke-dasharray: 3; transform-origin: 355.59px 294.635px;" id="el7xbhyuf07cc" class="animable"></polyline><line x1="429.23" y1="299.72" x2="383.24" y2="299.72" style="fill: none; stroke: rgb(38, 50, 56); stroke-linecap: round; stroke-linejoin: round; stroke-dasharray: 3; transform-origin: 406.235px 299.72px;" id="elw0k18rbw7c" class="animable"></line><path d="M322.24,158.36v7.88a4.69,4.69,0,0,0,4.7,4.7H349.2a6,6,0,0,1,6,6v23.15a13.27,13.27,0,0,1-4.4,9.87l-20.1,18.13" style="fill: none; stroke: rgb(255, 255, 255); stroke-linecap: round; stroke-linejoin: round; stroke-dasharray: 3; transform-origin: 338.72px 193.225px;" id="els2doq1rpetp" class="animable"></path><path d="M176,170.46V116.55a5.65,5.65,0,0,1,5.64-5.64h59a5.69,5.69,0,0,1,5.69,5.69v4.25a4.46,4.46,0,0,0,4.46,4.46h11.77" style="fill: none; stroke: rgb(255, 255, 255); stroke-linecap: round; stroke-linejoin: round; stroke-dasharray: 3; transform-origin: 219.28px 140.685px;" id="elldlba4xqp7n" class="animable"></path><polyline points="74 335.55 120.36 335.55 136.51 320.13" style="fill: none; stroke: rgb(38, 50, 56); stroke-linecap: round; stroke-linejoin: round; stroke-dasharray: 3; transform-origin: 105.255px 327.84px;" id="elfe1fhtzit0l" class="animable"></polyline><polyline points="74 367.01 126.17 367.01 140.69 353.46" style="fill: none; stroke: rgb(38, 50, 56); stroke-linecap: round; stroke-linejoin: round; stroke-dasharray: 3; transform-origin: 107.345px 360.235px;" id="ely5znbfgqvmn" class="animable"></polyline><line x1="77.33" y1="251.79" x2="78.83" y2="251.79" style="fill: none; stroke: rgb(38, 50, 56); stroke-linecap: round; stroke-linejoin: round; transform-origin: 78.08px 251.79px;" id="el5nqd57t5z3a" class="animable"></line><line x1="81.86" y1="251.79" x2="158.98" y2="251.79" style="fill: none; stroke: rgb(38, 50, 56); stroke-linecap: round; stroke-linejoin: round; stroke-dasharray: 3.0244, 3.0244; transform-origin: 120.42px 251.79px;" id="elmybn5lrb4pd" class="animable"></line><line x1="160.49" y1="251.79" x2="161.99" y2="251.79" style="fill: none; stroke: rgb(38, 50, 56); stroke-linecap: round; stroke-linejoin: round; transform-origin: 161.24px 251.79px;" id="eldqzpq6obtb" class="animable"></line><polygon points="124.63 251.9 112.49 247.19 112.49 256.62 124.63 251.9" style="fill: rgb(38, 50, 56); transform-origin: 118.56px 251.905px;" id="el191d6vqh17a" class="animable"></polygon><line x1="176.03" y1="211.13" x2="176.03" y2="209.63" style="fill: none; stroke: rgb(38, 50, 56); stroke-linecap: round; stroke-linejoin: round; transform-origin: 176.03px 210.38px;" id="elstivpi8t2nj" class="animable"></line><line x1="176.03" y1="206.73" x2="176.03" y2="173.41" style="fill: none; stroke: rgb(38, 50, 56); stroke-linecap: round; stroke-linejoin: round; stroke-dasharray: 2.8974, 2.8974; transform-origin: 176.03px 190.07px;" id="elpr49320q0g" class="animable"></line><line x1="176.03" y1="171.96" x2="176.03" y2="170.46" style="fill: none; stroke: rgb(38, 50, 56); stroke-linecap: round; stroke-linejoin: round; transform-origin: 176.03px 171.21px;" id="el49o7pg7fqg8" class="animable"></line><polygon points="176.01 177.02 171.29 189.17 180.72 189.17 176.01 177.02" style="fill: rgb(38, 50, 56); transform-origin: 176.005px 183.095px;" id="el24k38j9et4u" class="animable"></polygon><path d="M147.86,306.42l9.33-11.27a12.79,12.79,0,0,1,9.84-4.63h47.73a10.65,10.65,0,0,0,10.65-10.65V220.32" style="fill: none; stroke: rgb(38, 50, 56); stroke-linecap: round; stroke-linejoin: round; stroke-dasharray: 3; transform-origin: 186.635px 263.37px;" id="elxwhlec67toq" class="animable"></path><polygon points="225.26 233.02 220.54 245.17 229.97 245.17 225.26 233.02" style="fill: rgb(38, 50, 56); transform-origin: 225.255px 239.095px;" id="elsite61v415o" class="animable"></polygon><path d="M180.39,323.44h49.86a11.13,11.13,0,0,0,11.14-11.13V227.59" style="fill: none; stroke: rgb(38, 50, 56); stroke-linecap: round; stroke-linejoin: round; stroke-dasharray: 3; transform-origin: 210.89px 275.515px;" id="elt2otd7jqcn" class="animable"></path><polygon points="241.51 250.77 236.79 262.92 246.22 262.92 241.51 250.77" style="fill: rgb(38, 50, 56); transform-origin: 241.505px 256.845px;" id="elti7lfiij5x" class="animable"></polygon><line x1="327.94" y1="289.55" x2="302.87" y2="270.19" style="fill: none; stroke: rgb(38, 50, 56); stroke-linecap: round; stroke-linejoin: round; stroke-dasharray: 3; transform-origin: 315.405px 279.87px;" id="elyn2j9dkxxkm" class="animable"></line><polygon points="300.82 269.11 308.15 279.88 313.5 272.12 300.82 269.11" style="fill: rgb(38, 50, 56); transform-origin: 307.16px 274.495px;" id="elkn7obfgjm28" class="animable"></polygon></g><g id="freepik--Icons--inject-57" class="animable animator-active" style="transform-origin: 284px 158.24px;"><circle cx="211.5" cy="108.65" r="24.5" style="fill: rgb(255, 255, 255); stroke: rgb(38, 50, 56); stroke-linecap: round; stroke-linejoin: round; transform-origin: 211.5px 108.65px;" id="elznlvel692h" class="animable"></circle><path d="M235.8,111.73l-9.8-8.58-13,11-5-5-18.54,10.2a24.5,24.5,0,0,0,46.34-7.62Z" style="fill: rgb(84, 240, 49); stroke: rgb(38, 50, 56); stroke-linecap: round; stroke-linejoin: round; transform-origin: 212.63px 118.145px;" id="elqq7k94av6cn" class="animable"></path><circle cx="206" cy="100.15" r="6" style="fill: rgb(84, 240, 49); stroke: rgb(38, 50, 56); stroke-linecap: round; stroke-linejoin: round; transform-origin: 206px 100.15px;" id="el3tsah3b0o2d" class="animable"></circle><circle cx="356.5" cy="205.65" r="24.5" style="fill: rgb(255, 255, 255); stroke: rgb(38, 50, 56); stroke-linecap: round; stroke-linejoin: round; transform-origin: 356.5px 205.65px;" id="elsewqavpjbi" class="animable"></circle><path d="M363.44,189.1a17.94,17.94,0,0,1,3.09,31.42" style="fill: rgb(255, 255, 255); stroke: rgb(38, 50, 56); stroke-linecap: round; stroke-linejoin: round; transform-origin: 368.941px 204.81px;" id="el8bcexz4rhn9" class="animable"></path><path d="M361.07,194.62a11.95,11.95,0,0,1,1.52,21.31" style="fill: rgb(255, 255, 255); stroke: rgb(38, 50, 56); stroke-linecap: round; stroke-linejoin: round; transform-origin: 364.753px 205.275px;" id="elnmexcckdbu" class="animable"></path><path d="M358.44,200a5.95,5.95,0,0,1,.37,11.1" style="fill: rgb(255, 255, 255); stroke: rgb(38, 50, 56); stroke-linecap: round; stroke-linejoin: round; transform-origin: 360.44px 205.55px;" id="eld02ixwtrl4b" class="animable"></path><polygon points="348.82 198.38 339.66 198.38 339.66 212.17 348.82 212.17 354.82 216.55 354.82 194 348.82 198.38" style="fill: rgb(84, 240, 49); stroke: rgb(38, 50, 56); stroke-linecap: round; stroke-linejoin: round; transform-origin: 347.24px 205.275px;" id="elwvjnfq6ubu" class="animable"></polygon><circle cx="227.52" cy="171.25" r="24.5" style="fill: rgb(255, 255, 255); stroke: rgb(38, 50, 56); stroke-linecap: round; stroke-linejoin: round; transform-origin: 227.52px 171.25px;" id="elyr4h20h1g7" class="animable"></circle><path d="M235.54,150.67A27,27,0,0,1,225,158.21c-7.16,3-9.79,3.93-9.79,9.41,0,3.39,3,7.91,6.78,7.91s6.4,5.28,3,7.91.38,6,.38,6" style="fill: none; stroke: rgb(38, 50, 56); stroke-linecap: round; stroke-linejoin: round; transform-origin: 225.375px 170.055px;" id="elztzldza0xc" class="animable"></path><path d="M233.2,175.47c-.33,1.19-2.88,1.53-5.7.75s-4.83-2.38-4.5-3.57,2.88-1.52,5.7-.75S233.53,174.28,233.2,175.47Z" style="fill: rgb(38, 50, 56); transform-origin: 228.1px 174.062px;" id="el38c2viag0z" class="animable"></path><path d="M211.39,179.65a22.86,22.86,0,0,0,8.7-2.61" style="fill: none; stroke: rgb(38, 50, 56); stroke-linecap: round; stroke-linejoin: round; transform-origin: 215.74px 178.345px;" id="elizidzs7ecj8" class="animable"></path><path d="M208.42,179.3a4.44,4.44,0,0,0,1.4.31" style="fill: none; stroke: rgb(38, 50, 56); stroke-linecap: round; stroke-linejoin: round; transform-origin: 209.12px 179.455px;" id="el5d31s480t0i" class="animable"></path><path d="M217.45,182.77a11.09,11.09,0,0,1-1.5.67" style="fill: none; stroke: rgb(38, 50, 56); stroke-linecap: round; stroke-linejoin: round; transform-origin: 216.7px 183.105px;" id="el8wffwjdov1b" class="animable"></path><path d="M223.86,177.42a27.71,27.71,0,0,1-4.46,4.12" style="fill: none; stroke: rgb(38, 50, 56); stroke-linecap: round; stroke-linejoin: round; transform-origin: 221.63px 179.48px;" id="ele0lw3ga8eoe" class="animable"></path><path d="M233.71,177.43s3.36,0,3.89-4.07-1.95-5.13-1.95-5.13" style="fill: none; stroke: rgb(38, 50, 56); stroke-linecap: round; stroke-linejoin: round; transform-origin: 235.692px 172.83px;" id="elak2pdvejob" class="animable"></path><circle cx="284.61" cy="207.83" r="24.5" style="fill: rgb(255, 255, 255); stroke: rgb(38, 50, 56); stroke-linecap: round; stroke-linejoin: round; transform-origin: 284.61px 207.83px;" id="elwy8ib2pdsnh" class="animable"></circle><path d="M267.09,208.31h34.4A18.89,18.89,0,0,0,284.16,197C271.29,196.76,267.09,208.31,267.09,208.31Z" style="fill: rgb(38, 50, 56); stroke: rgb(38, 50, 56); stroke-linecap: round; stroke-linejoin: round; transform-origin: 284.29px 202.653px;" id="elxxo2lz0y0cf" class="animable"></path><path d="M285.32,203.85H284.2c-5-2.69-7.92,0-7.92,0v14.7a8.14,8.14,0,0,0,8.14,8.14h0a8.13,8.13,0,0,0,8.14-8.14v-14.7A10.63,10.63,0,0,0,285.32,203.85Z" style="fill: rgb(84, 240, 49); stroke: rgb(38, 50, 56); stroke-linecap: round; stroke-linejoin: round; transform-origin: 284.42px 214.672px;" id="elod991xsrlyb" class="animable"></path><line x1="284.68" y1="216.45" x2="284.68" y2="217.76" style="fill: none; stroke: rgb(38, 50, 56); stroke-linecap: round; stroke-linejoin: round; transform-origin: 284.68px 217.105px;" id="elbaybv5j9ukd" class="animable"></line><line x1="284.68" y1="204.64" x2="284.68" y2="214.61" style="fill: none; stroke: rgb(38, 50, 56); stroke-linecap: round; stroke-linejoin: round; transform-origin: 284.68px 209.625px;" id="el2ghb4awlqw3" class="animable"></line></g><g id="freepik--Device--inject-57" class="animable" style="transform-origin: 332.175px 114.505px;"><path d="M402.61,128v-7.59l-7.12-.71a21.65,21.65,0,0,0-3-7.29l4.53-5.54-5.37-5.37L386.09,106a21.51,21.51,0,0,0-7.28-3l-.72-7.12H370.5l-.71,7.12a21.65,21.65,0,0,0-7.29,3L357,101.46l-5.36,5.37,4.53,5.54a21.47,21.47,0,0,0-3,7.29l-7.11.71V128l7.11.71a21.47,21.47,0,0,0,3,7.29l-4.53,5.54,5.36,5.37,5.54-4.54a21.47,21.47,0,0,0,7.29,3l.71,7.11h7.59l.72-7.11a21.33,21.33,0,0,0,7.28-3l5.54,4.54L397,141.5,392.47,136a21.65,21.65,0,0,0,3-7.29Zm-28.31,7.11a10.91,10.91,0,1,1,10.9-10.91A10.91,10.91,0,0,1,374.3,135.07Z" style="fill: rgb(255, 255, 255); stroke: rgb(38, 50, 56); stroke-linecap: round; stroke-linejoin: round; transform-origin: 374.335px 124.18px;" id="elm0w9kleh93" class="animable"></path><path d="M318.34,92.43V86.15l-5.88-.59a17.7,17.7,0,0,0-2.5-6L313.71,75l-4.44-4.44-4.58,3.75a17.67,17.67,0,0,0-6-2.5l-.59-5.89H291.8l-.59,5.89a17.76,17.76,0,0,0-6,2.5l-4.57-3.75L276.17,75l3.74,4.58a18.11,18.11,0,0,0-2.5,6l-5.88.59v6.28l5.88.59a18.11,18.11,0,0,0,2.5,6l-3.74,4.58,4.44,4.44,4.57-3.75a17.76,17.76,0,0,0,6,2.5l.59,5.88h6.27l.59-5.88a17.67,17.67,0,0,0,6-2.5l4.58,3.75,4.44-4.44L310,99a17.7,17.7,0,0,0,2.5-6Zm-23.4,5.87a9,9,0,1,1,9-9A9,9,0,0,1,294.94,98.3Z" style="fill: rgb(255, 255, 255); stroke: rgb(38, 50, 56); stroke-linecap: round; stroke-linejoin: round; transform-origin: 294.935px 89.305px;" id="elvunbrwis4ah" class="animable"></path><rect x="261.74" y="85.24" width="120.5" height="77.85" rx="9.48" style="fill: rgb(84, 240, 49); stroke: rgb(38, 50, 56); stroke-linecap: round; stroke-linejoin: round; transform-origin: 321.99px 124.165px;" id="elyuhatevmzvf" class="animable"></rect><rect x="270.12" y="91.33" width="103.73" height="65.66" rx="6.64" style="fill: rgb(255, 255, 255); stroke: rgb(38, 50, 56); stroke-linecap: round; stroke-linejoin: round; transform-origin: 321.985px 124.16px;" id="el7pe4wezmb35" class="animable"></rect><path d="M351.5,136h-59a4,4,0,0,1-4-4h0a4,4,0,0,1,4-4h59a4,4,0,0,1,4,4h0A4,4,0,0,1,351.5,136Z" style="fill: rgb(255, 255, 255); stroke: rgb(38, 50, 56); stroke-linecap: round; stroke-linejoin: round; transform-origin: 322px 132px;" id="elxt87p1ifqca" class="animable"></path><path d="M331.75,127.93H292.47a4,4,0,0,0,0,8.07h39.28Z" style="fill: rgb(84, 240, 49); stroke: rgb(38, 50, 56); stroke-linecap: round; stroke-linejoin: round; transform-origin: 310.092px 131.965px;" id="elgtal43o49n5" class="animable"></path><path d="M302.06,116.6v1c0,1.28-.61,2-1.87,2h-.59v3h-1.25v-8h1.84C301.45,114.63,302.06,115.32,302.06,116.6Zm-2.46-.83v2.69h.59c.4,0,.62-.18.62-.75v-1.19c0-.57-.22-.75-.62-.75Z" style="fill: rgb(38, 50, 56); transform-origin: 300.205px 118.6px;" id="el9xnnsvw8aqa" class="animable"></path><path d="M305.26,122.59a2.4,2.4,0,0,1-.11-1v-1.26c0-.74-.25-1-.82-1h-.44v3.24h-1.25v-8h1.89c1.3,0,1.86.6,1.86,1.83v.63a1.57,1.57,0,0,1-.82,1.61c.62.26.83.87.83,1.7v1.23a2.41,2.41,0,0,0,.13,1Zm-1.37-6.82v2.44h.49c.47,0,.76-.2.76-.84v-.78c0-.57-.2-.82-.64-.82Z" style="fill: rgb(38, 50, 56); transform-origin: 304.585px 118.58px;" id="elwr0oi1ot44k" class="animable"></path><path d="M307.12,116.54a1.9,1.9,0,1,1,3.8,0v4.14a1.9,1.9,0,1,1-3.8,0Zm1.25,4.22c0,.57.25.79.65.79s.65-.22.65-.79v-4.3c0-.57-.25-.78-.65-.78s-.65.21-.65.78Z" style="fill: rgb(38, 50, 56); transform-origin: 309.02px 118.61px;" id="el5rrvtd3bmxj" class="animable"></path><path d="M315.36,119.62v1.06c0,1.28-.64,2-1.87,2s-1.86-.73-1.86-2v-4.14c0-1.27.63-2,1.86-2a1.75,1.75,0,0,1,1.87,2v.77h-1.18v-.85c0-.57-.25-.78-.65-.78s-.65.21-.65.78v4.3c0,.57.25.78.65.78s.65-.21.65-.78v-1.14Z" style="fill: rgb(38, 50, 56); transform-origin: 313.504px 118.607px;" id="elsczf09oik7n" class="animable"></path><path d="M317.38,118h1.71v1.13h-1.71v2.34h2.16v1.13h-3.42v-8h3.42v1.14h-2.16Z" style="fill: rgb(38, 50, 56); transform-origin: 317.83px 118.6px;" id="elga3c81rflzq" class="animable"></path><path d="M322,114.54c1.22,0,1.84.73,1.84,2v.25h-1.18v-.33c0-.57-.23-.78-.63-.78s-.62.21-.62.78c0,1.64,2.44,2,2.44,4.22,0,1.28-.63,2-1.86,2s-1.87-.73-1.87-2v-.49h1.18v.57c0,.57.25.78.65.78s.65-.21.65-.78c0-1.64-2.45-1.94-2.45-4.22C320.15,115.27,320.78,114.54,322,114.54Z" style="fill: rgb(38, 50, 56); transform-origin: 321.985px 118.61px;" id="elgfwrdff1w9l" class="animable"></path><path d="M326.26,114.54c1.22,0,1.84.73,1.84,2v.25h-1.18v-.33c0-.57-.23-.78-.63-.78s-.62.21-.62.78c0,1.64,2.44,2,2.44,4.22,0,1.28-.63,2-1.86,2s-1.87-.73-1.87-2v-.49h1.18v.57c0,.57.25.78.65.78s.65-.21.65-.78c0-1.64-2.45-1.94-2.45-4.22C324.41,115.27,325,114.54,326.26,114.54Z" style="fill: rgb(38, 50, 56); transform-origin: 326.245px 118.61px;" id="el3l9u6pk9j2w" class="animable"></path><path d="M328.83,114.63h1.25v8h-1.25Z" style="fill: rgb(38, 50, 56); transform-origin: 329.455px 118.63px;" id="el26wnf1j8l4u" class="animable"></path><path d="M332.11,116.82v5.77H331v-8h1.57l1.29,4.77v-4.77H335v8h-1.28Z" style="fill: rgb(38, 50, 56); transform-origin: 333px 118.59px;" id="elktp4r8kkn68" class="animable"></path><path d="M337.73,118.16h1.76v2.52c0,1.28-.64,2-1.87,2s-1.87-.73-1.87-2v-4.14a1.87,1.87,0,1,1,3.74,0v.77H338.3v-.85c0-.57-.25-.78-.64-.78s-.65.21-.65.78v4.3c0,.57.25.78.65.78s.64-.21.64-.78v-1.47h-.57Z" style="fill: rgb(38, 50, 56); transform-origin: 337.62px 118.671px;" id="el3vlukffakdq" class="animable"></path><path d="M341.39,121.39v1.2h-1.21v-1.2Z" style="fill: rgb(38, 50, 56); transform-origin: 340.785px 121.99px;" id="ellui82oxmhw" class="animable"></path><path d="M343.51,121.39v1.2H342.3v-1.2Z" style="fill: rgb(38, 50, 56); transform-origin: 342.905px 121.99px;" id="elq2wpvhsstys" class="animable"></path><path d="M345.63,121.39v1.2h-1.21v-1.2Z" style="fill: rgb(38, 50, 56); transform-origin: 345.025px 121.99px;" id="elsnfc1p0xow" class="animable"></path></g><defs>     <filter id="active" height="200%">         <feMorphology in="SourceAlpha" result="DILATED" operator="dilate" radius="2"></feMorphology>                <feFlood flood-color="#32DFEC" flood-opacity="1" result="PINK"></feFlood>        <feComposite in="PINK" in2="DILATED" operator="in" result="OUTLINE"></feComposite>        <feMerge>            <feMergeNode in="OUTLINE"></feMergeNode>            <feMergeNode in="SourceGraphic"></feMergeNode>        </feMerge>    </filter>    <filter id="hover" height="200%">        <feMorphology in="SourceAlpha" result="DILATED" operator="dilate" radius="2"></feMorphology>                <feFlood flood-color="#ff0000" flood-opacity="0.5" result="PINK"></feFlood>        <feComposite in="PINK" in2="DILATED" operator="in" result="OUTLINE"></feComposite>        <feMerge>            <feMergeNode in="OUTLINE"></feMergeNode>            <feMergeNode in="SourceGraphic"></feMergeNode>        </feMerge>            <feColorMatrix type="matrix" values="0   0   0   0   0                0   1   0   0   0                0   0   0   0   0                0   0   0   1   0 "></feColorMatrix>    </filter></defs></svg>